<?xml version="1.0" encoding="UTF-8" standalone="no"?>
<svg width="32px" height="20px" viewBox="0 0 32 20" version="1.1" xmlns="http://www.w3.org/2000/svg" xmlns:xlink="http://www.w3.org/1999/xlink">
    <!-- Generator: Sketch 3.6.1 (26313) - http://www.bohemiancoding.com/sketch -->
    <title>Path</title>
    <desc>Created with Sketch.</desc>
    <defs></defs>
    <g id="Page-1" stroke="none" stroke-width="1" fill="none" fill-rule="evenodd">
        <g id="Desktop-Landscape-Copy" transform="translate(-773.000000, -742.000000)" fill="#000000">
            <path d="M805.007996,752.005 C805.007996,752.467942 804.632748,752.84319 804.169806,752.84319 L775.861521,752.84319 L783.597443,760.579112 C783.924766,760.906434 783.924766,761.437186 783.597443,761.764508 C783.270121,762.091831 782.739369,762.091831 782.412047,761.764508 L773.245492,752.597443 C772.918169,752.270121 772.918169,751.739369 773.245492,751.412047 L782.412047,742.245492 C782.739369,741.918169 783.270121,741.918169 783.597443,742.245492 C783.761105,742.409153 783.84268,742.623799 783.84268,742.837935 C783.84268,743.052071 783.760595,743.266717 783.597443,743.430378 L775.861521,751.16681 L804.169806,751.16681 C804.632748,751.16681 805.007996,751.542058 805.007996,752.005 L805.007996,752.005 Z" id="Path"></path>
        </g>
    </g>
</svg>