<?xml version="1.0" encoding="UTF-8" standalone="no"?>
<svg width="14px" height="16px" viewBox="0 0 14 16" version="1.1" xmlns="http://www.w3.org/2000/svg" xmlns:xlink="http://www.w3.org/1999/xlink">
    <!-- Generator: Sketch 3.6.1 (26313) - http://www.bohemiancoding.com/sketch -->
    <title>noun_94182_cc</title>
    <desc>Created with Sketch.</desc>
    <defs></defs>
    <g id="Page-1" stroke="none" stroke-width="1" fill="none" fill-rule="evenodd">
        <g id="Desktop-Landscape-Copy" transform="translate(-772.000000, -664.000000)" fill="#080049">
            <g id="Group-7" transform="translate(768.000000, 117.000000)">
                <g id="Group-5" transform="translate(2.000000, 547.000000)">
                    <g id="Group-2" transform="translate(2.000000, 0.000000)">
                        <g id="noun_94182_cc">
                            <path d="M12.9489063,15.8 L1.05109375,15.8 C0.483,15.8 0.0214375,15.3553684 0.0214375,14.8090526 L0.0214375,5.636 C0.0214375,5.08989474 0.483,4.64547368 1.05109375,4.64547368 L12.9489063,4.64547368 C13.5167813,4.64547368 13.9785625,5.08989474 13.9785625,5.636 L13.9785625,14.8088421 C13.9785625,15.3553684 13.5167813,15.8 12.9489063,15.8 L12.9489063,15.8 L12.9489063,15.8 Z M1.05109375,5.30631579 C0.86165625,5.30631579 0.707875,5.45389474 0.707875,5.636 L0.707875,14.8088421 C0.707875,14.9911579 0.86165625,15.1391579 1.05109375,15.1391579 L12.9489063,15.1391579 C13.138125,15.1391579 13.2919063,14.9911579 13.2919063,14.8088421 L13.2919063,5.636 C13.2919063,5.45389474 13.138125,5.30631579 12.9489063,5.30631579 L1.05109375,5.30631579 L1.05109375,5.30631579 L1.05109375,5.30631579 Z" id="Shape"></path>
                            <path d="M11.76175,13.8452632 L2.2168125,13.8452632 C1.6485,13.8452632 1.18715625,13.4010526 1.18715625,12.8545263 L1.18715625,6.63452632 C1.18715625,6.088 1.6485,5.64357895 2.2168125,5.64357895 L11.7615313,5.64357895 C12.3298438,5.64357895 12.7911875,6.088 12.7911875,6.63452632 L12.7911875,12.8545263 C12.7914063,13.4008421 12.3298438,13.8452632 11.76175,13.8452632 L11.76175,13.8452632 L11.76175,13.8452632 Z M2.2168125,6.30378947 C2.027375,6.30378947 1.873375,6.45178947 1.873375,6.63431579 L1.873375,12.8543158 C1.873375,13.0364211 2.027375,13.1846316 2.2168125,13.1846316 L11.7615313,13.1846316 C11.95075,13.1846316 12.1049688,13.0364211 12.1049688,12.8543158 L12.1049688,6.63452632 C12.1049688,6.452 11.95075,6.304 11.7615313,6.304 L2.2168125,6.304 L2.2168125,6.30378947 L2.2168125,6.30378947 Z" id="Shape"></path>
                            <path d="M7.04977153,3.36050104 L2.0965,0.253473684 C1.9376875,0.154105263 1.72528125,0.197263158 1.6218125,0.349894737 C1.51790625,0.502736842 1.56275,0.707157895 1.72134375,0.807157895 L6.81275,4 C6.8705,4.03642105 6.9356875,4.05347368 6.9995625,4.05347368 C7.01643055,4.05347368 7.03324918,4.05228451 7.049875,4.04993262 C7.06650082,4.05228451 7.08331945,4.05347368 7.1001875,4.05347368 C7.16428125,4.05347368 7.22946875,4.03642105 7.28721875,4 L12.37775,0.807157895 C12.5372188,0.707157895 12.581625,0.502736842 12.4781563,0.349894737 C12.3746875,0.197263158 12.1620625,0.154105263 12.0034688,0.253473684 L7.04977153,3.36050104 Z" id="Combined-Shape"></path>
                            <path d="M10.4214687,14.4549474 C10.4214687,14.6362105 10.2685625,14.7831579 10.080875,14.7831579 C9.89296875,14.7831579 9.74028125,14.6364211 9.74028125,14.4549474 C9.74028125,14.2745263 9.89275,14.1275789 10.080875,14.1275789 C10.2683437,14.1275789 10.4214687,14.2745263 10.4214687,14.4549474 L10.4214687,14.4549474 Z" id="Shape"></path>
                            <path d="M11.7654687,14.4549474 C11.7654687,14.6362105 11.613,14.7831579 11.424875,14.7831579 C11.23675,14.7831579 11.0847187,14.6364211 11.0847187,14.4549474 C11.0847187,14.2745263 11.23675,14.1275789 11.424875,14.1275789 C11.613,14.1275789 11.7654687,14.2745263 11.7654687,14.4549474 L11.7654687,14.4549474 Z" id="Shape"></path>
                        </g>
                    </g>
                </g>
            </g>
        </g>
    </g>
</svg>