<?xml version="1.0" encoding="UTF-8" standalone="no"?>
<svg width="32px" height="32px" viewBox="0 0 32 32" version="1.1" xmlns="http://www.w3.org/2000/svg" xmlns:xlink="http://www.w3.org/1999/xlink">
    <!-- Generator: Sketch 3.6.1 (26313) - http://www.bohemiancoding.com/sketch -->
    <title>Combined Shape</title>
    <desc>Created with Sketch.</desc>
    <defs></defs>
    <g id="Page-1" stroke="none" stroke-width="1" fill="none" fill-rule="evenodd">
        <g id="Desktop-Landscape-Copy" transform="translate(-737.000000, -703.000000)" fill="#000000">
            <path d="M766.7,720.668311 L766.7,709.920918 L750.1,714.579082 L750.1,727.941071 C750.133294,728.220714 750.132183,728.510357 750.1,728.8 C749.8,730.8 748,732.7 746.4,733.5 C745.5,734.1 744.4,734.4 743.3,734.4 C741.5,734.4 739.9,733.8 738.9,732.6 C738,731.7 737.7,730.6 737.8,729.4 C738,728.2 738.8,727 740.1,726.3 C741.4,725.6 743.5,725.1 745.4,725.1 C746.39679,725.1 747.628748,725.217585 748.6,725.768311 L748.6,714.5 L748.6,709.1 L768.2,703.6 L768.2,709.25 L768.2,722.841071 C768.233294,723.120714 768.232183,723.410357 768.2,723.7 C767.9,725.7 766.1,727.6 764.5,728.4 C763.6,729.1 762.5,729.3 761.4,729.3 C759.6,729.3 758,728.7 757,727.5 C756.1,726.6 755.8,725.5 755.9,724.3 C756.1,723.1 756.9,721.9 758.2,721.2 C759.5,720.5 761.6,720 763.5,720 C764.49679,720 765.728748,720.117585 766.7,720.668311 Z M750.1,710.2 L750.1,713 L766.7,708.4 L766.7,705.6 L750.1,710.2 Z M745.4,726.7 C743.8,726.7 741.9,727.1 740.8,727.7 C739.9,728.2 739.3,728.9 739.2,729.7 C739.1,730.4 739.3,731.1 739.9,731.6 C740.7,732.4 741.9,732.9 743.2,732.9 C744.1,732.9 744.9,732.7 745.6,732.3 C747,731.5 748.3,729.9 748.5,728.6 C748.6,728.1 748.5,727.7 748.2,727.4 C747.8,727 746.8,726.7 745.4,726.7 Z M763.6,721.6 C762,721.6 760.1,722 759,722.6 C758.1,723.1 757.5,723.8 757.4,724.6 C757.3,725.3 757.5,726 758.1,726.5 C758.9,727.3 760.1,727.8 761.4,727.8 C762.3,727.8 763.1,727.6 763.8,727.2 C765.2,726.4 766.5,724.8 766.7,723.5 C766.8,723 766.7,722.6 766.4,722.3 C766,721.9 764.9,721.6 763.6,721.6 Z" id="Combined-Shape"></path>
        </g>
    </g>
</svg>