<?xml version="1.0" encoding="UTF-8" standalone="no"?>
<svg width="25px" height="25px" viewBox="0 0 25 25" version="1.1" xmlns="http://www.w3.org/2000/svg" xmlns:xlink="http://www.w3.org/1999/xlink">
    <!-- Generator: Sketch 3.6.1 (26313) - http://www.bohemiancoding.com/sketch -->
    <title>social-linkedin</title>
    <desc>Created with Sketch.</desc>
    <defs></defs>
    <g id="Page-1" stroke="none" stroke-width="1" fill="none" fill-rule="evenodd">
        <g id="Desktop-Landscape" transform="translate(-860.000000, -542.000000)" fill="#C8BEBE">
            <g id="Group-4" transform="translate(760.000000, 284.000000)">
                <g id="social" transform="translate(0.000000, 258.000000)">
                    <path d="M106.103983,3.075 C106.103983,4.77333333 104.737544,6.15 103.051991,6.15 C101.366439,6.15 100,4.77333333 100,3.075 C100,1.37666667 101.366439,0 103.051991,0 C104.737544,0 106.103983,1.37666667 106.103983,3.075 L106.103983,3.075 Z M105.65739,8.33333333 L100.496584,8.33333333 L100.496584,25 L105.65739,25 L105.65739,8.33333333 L105.65739,8.33333333 Z M113.908515,8.33333333 L108.958507,8.33333333 L108.958507,25 L113.908515,25 L113.908515,16.2508333 C113.908515,13.9075 114.987502,12.5125 117.052991,12.5125 C118.951841,12.5125 119.863356,13.8508333 119.863356,16.2508333 L119.863356,25 L125,25 L125,14.4466667 C125,9.9825 122.469588,7.825 118.933511,7.825 C115.396601,7.825 113.908515,10.5775 113.908515,10.5775 L113.908515,8.33333333 L113.908515,8.33333333 L113.908515,8.33333333 Z" id="social-linkedin"></path>
                </g>
            </g>
        </g>
    </g>
</svg>