<?xml version="1.0" encoding="UTF-8" standalone="no"?>
<svg width="25px" height="25px" viewBox="0 0 25 25" version="1.1" xmlns="http://www.w3.org/2000/svg" xmlns:xlink="http://www.w3.org/1999/xlink">
    <!-- Generator: Sketch 3.6.1 (26313) - http://www.bohemiancoding.com/sketch -->
    <title>social-instagram</title>
    <desc>Created with Sketch.</desc>
    <defs></defs>
    <g id="Page-1" stroke="none" stroke-width="1" fill="none" fill-rule="evenodd">
        <g id="Desktop-Landscape" transform="translate(-910.000000, -542.000000)" fill="#C8BEBE">
            <g id="Group-4" transform="translate(760.000000, 284.000000)">
                <g id="social" transform="translate(0.000000, 258.000000)">
                    <path d="M167.697088,8.92833333 L175,8.92833333 L175,20.0808333 C175,22.7975 172.786719,25 170.055311,25 L154.944689,25 C152.214114,25 150,22.7966667 150,20.0808333 L150,8.92833333 L157.270425,8.92833333 C156.525723,9.96833333 156.086732,11.2391667 156.086732,12.6133333 C156.086732,16.1283333 158.950586,18.9766667 162.48334,18.9766667 C166.016094,18.9766667 168.880781,16.1283333 168.880781,12.6133333 C168.880781,11.2391667 168.44179,9.96833333 167.697088,8.92833333 L167.697088,8.92833333 Z M175,4.91833333 L175,8.14916667 L167.040684,8.14916667 C165.881148,6.9775 164.267626,6.25 162.48334,6.25 C160.699054,6.25 159.086365,6.9775 157.926829,8.14916667 L150,8.14916667 L150,4.91833333 C150,3.26083333 150.825503,1.795 152.089164,0.904166667 L152.089164,6.20083333 L153.102925,6.20083333 L153.102925,0.353333333 C153.332834,0.261666667 153.571072,0.186666667 153.816807,0.13 L153.816807,6.20083333 L154.830568,6.20083333 L154.830568,0.0025 C154.868886,0.00166666667 154.906371,0 154.944689,0 L155.530288,0 L155.530288,6.20083333 L156.544049,6.20083333 L156.544049,0 L170.055311,0 C172.786719,0 175,2.20166667 175,4.91833333 L175,4.91833333 Z M172.740071,2.845 C172.740071,2.41 172.385213,2.05583333 171.947055,2.05583333 L169.273957,2.05583333 C168.836632,2.05583333 168.480941,2.40916667 168.480941,2.845 L168.480941,5.5625 C168.480941,5.99833333 168.836632,6.35166667 169.273957,6.35166667 L171.947055,6.35166667 C172.385213,6.35166667 172.740071,5.99833333 172.740071,5.5625 L172.740071,2.845 L172.740071,2.845 L172.740071,2.845 Z M157.555311,12.6133333 C157.555311,11.145 158.20755,9.8275 159.238804,8.92833333 C159.60116,8.61333333 160.007664,8.34916667 160.451653,8.14916667 C161.071405,7.86833333 161.759463,7.71083333 162.48334,7.71083333 C163.20805,7.71083333 163.896108,7.86833333 164.51586,8.14916667 C164.959016,8.34916667 165.366353,8.61333333 165.727876,8.92833333 C166.758297,9.8275 167.411369,11.1458333 167.411369,12.6133333 C167.411369,15.3166667 165.201419,17.5158333 162.48334,17.5158333 C159.766927,17.5158333 157.555311,15.3166667 157.555311,12.6133333 L157.555311,12.6133333 Z M158.858123,12.6133333 C158.858123,14.6141667 160.489138,16.2366667 162.5,16.2366667 C164.511695,16.2366667 166.14271,14.615 166.14271,12.6133333 C166.14271,10.6116667 164.511695,8.99 162.5,8.99 C160.489138,8.99 158.858123,10.6116667 158.858123,12.6133333 L158.858123,12.6133333 Z" id="social-instagram"></path>
                </g>
            </g>
        </g>
    </g>
</svg>