<?xml version="1.0" encoding="UTF-8" standalone="no"?>
<svg width="25px" height="21px" viewBox="0 0 25 21" version="1.1" xmlns="http://www.w3.org/2000/svg" xmlns:xlink="http://www.w3.org/1999/xlink">
    <!-- Generator: Sketch 3.6.1 (26313) - http://www.bohemiancoding.com/sketch -->
    <title>social-twitter</title>
    <desc>Created with Sketch.</desc>
    <defs></defs>
    <g id="Page-1" stroke="none" stroke-width="1" fill="none" fill-rule="evenodd">
        <g id="Desktop-Landscape" transform="translate(-810.000000, -544.000000)" fill="#C8BEBE">
            <g id="Group-4" transform="translate(760.000000, 284.000000)">
                <g id="social" transform="translate(0.000000, 258.000000)">
                    <path d="M75,4.9680788 C74.0802146,5.36462561 73.0912787,5.63282947 72.0540207,5.75294531 C73.1129403,5.13591189 73.9260839,4.15935368 74.3093278,2.99604002 C73.3187256,3.56617889 72.2206485,3.98164806 71.0525877,4.20542551 C70.1169727,3.23627169 68.7839504,2.63157895 67.3084614,2.63157895 C63.9975672,2.63157895 61.5639684,5.63282947 62.3121272,8.75008227 C58.0497884,8.54193633 54.2706702,6.55837959 51.7404272,3.54396569 C50.3974073,5.78338562 51.0439231,8.71306027 53.3275569,10.1964086 C52.4869197,10.1700818 51.6962709,9.94548167 51.0039324,9.57279349 C50.9489452,11.8813212 52.6510481,14.0401154 55.1179725,14.5214015 C54.395641,14.7122705 53.6058253,14.7558742 52.8018462,14.6069634 C53.454194,16.5864066 55.348752,18.0261512 57.5932282,18.0664641 C55.4370647,19.707773 52.7210318,20.4416314 50,20.1298238 C52.2694705,21.5440644 54.965508,22.3684211 57.8623321,22.3684211 C67.384277,22.3684211 72.7646882,14.5559553 72.4405972,7.54810118 C73.4428633,6.84468309 74.3126604,5.96767293 75,4.9680788 L75,4.9680788 Z" id="social-twitter"></path>
                </g>
            </g>
        </g>
    </g>
</svg>