<?xml version="1.0" encoding="UTF-8" standalone="no"?>
<svg width="25px" height="25px" viewBox="0 0 25 25" version="1.1" xmlns="http://www.w3.org/2000/svg" xmlns:xlink="http://www.w3.org/1999/xlink">
    <!-- Generator: Sketch 3.6.1 (26313) - http://www.bohemiancoding.com/sketch -->
    <title>social-dribbble</title>
    <desc>Created with Sketch.</desc>
    <defs></defs>
    <g id="Page-1" stroke="none" stroke-width="1" fill="none" fill-rule="evenodd">
        <g id="Desktop-Landscape" transform="translate(-960.000000, -542.000000)" fill="#C8BEBE">
            <g id="Group-4" transform="translate(760.000000, 284.000000)">
                <g id="social" transform="translate(0.000000, 258.000000)">
                    <path d="M212.5,2.30926389e-14 C205.596667,2.30926389e-14 200,5.59731342 200,12.4995833 C200,19.4026866 205.596667,25 212.5,25 C219.403333,25 225,19.4026866 225,12.4995833 C225,5.59731342 219.403333,2.30926389e-14 212.5,2.30926389e-14 L212.5,2.30926389e-14 Z M222.795833,11.9179361 C220.114167,11.4779507 217.646667,11.4546182 215.3975,11.841272 C215.143333,11.2546248 214.88,10.6704777 214.599167,10.0913303 C217.005,9.04969834 218.9375,7.63474551 220.378333,5.83980534 C221.784167,7.49975001 222.666667,9.60884637 222.795833,11.9179361 L222.795833,11.9179361 Z M218.794167,4.33235559 C217.54,5.94980167 215.8075,7.23142562 213.601667,8.16556115 C212.5425,6.22729242 211.333333,4.33735542 209.9675,2.50158328 C210.779167,2.29575681 211.625,2.1740942 212.5,2.1740942 C214.87,2.1740942 217.05,2.9849005 218.794167,4.33235559 L218.794167,4.33235559 Z M207.840833,3.29739009 C209.228333,5.11232959 210.456667,6.98226726 211.525,8.90303657 C208.993333,9.64884504 205.971667,10.0313323 202.479167,10.0554982 C203.2,7.10142995 205.189167,4.64484517 207.840833,3.29739009 L207.840833,3.29739009 Z M202.174167,12.4995833 C202.174167,12.4104197 202.185,12.3220893 202.1875,12.2345922 C206.195833,12.2279257 209.654167,11.7671078 212.5525,10.8571381 C212.795,11.3512883 213.0275,11.8471051 213.25,12.348755 C209.73,13.4478851 206.828333,15.7036432 204.565833,19.09853 C203.073333,17.3077564 202.174167,15.0069998 202.174167,12.4995833 L202.174167,12.4995833 Z M206.163333,20.6351455 C208.214167,17.418586 210.8325,15.3244892 214.0775,14.3578547 C215.043333,16.8777707 215.754167,19.4718509 216.205,22.1275957 C215.053333,22.5717476 213.8075,22.8259058 212.500833,22.8259058 C210.110833,22.8259058 207.914167,22.0025999 206.163333,20.6351455 L206.163333,20.6351455 Z M218.231667,21.0834639 C217.775,18.6327122 217.105833,16.2369588 216.231667,13.8987034 C218.185833,13.6237125 220.336667,13.6953768 222.689167,14.1036965 C222.233333,17.0052665 220.575833,19.5118496 218.231667,21.0834639 L218.231667,21.0834639 Z" id="social-dribbble"></path>
                </g>
            </g>
        </g>
    </g>
</svg>