<?xml version="1.0" encoding="UTF-8" standalone="no"?>
<svg width="89px" height="89px" viewBox="0 0 89 89" version="1.1" xmlns="http://www.w3.org/2000/svg" xmlns:xlink="http://www.w3.org/1999/xlink">
    <!-- Generator: Sketch 3.6.1 (26313) - http://www.bohemiancoding.com/sketch -->
    <title>Shape</title>
    <desc>Created with Sketch.</desc>
    <defs></defs>
    <g id="Page-1" stroke="none" stroke-width="1" fill="none" fill-rule="evenodd">
        <path d="M1.60952917,1.6212467 C0.869529173,2.3612467 0.474529173,3.3782467 0.501529173,4.4172467 L1.49852917,42.1242467 C1.52452917,43.1342467 1.93952917,44.0822467 2.64652917,44.7892467 L45.2205292,87.3632467 C46.7035292,88.8462467 49.1835292,88.9012467 50.6875292,87.3982467 L87.3985292,50.6872467 C88.9015292,49.1832467 88.8455292,46.7052467 87.3625292,45.2222467 L44.7905292,2.6492467 C44.0845292,1.9422467 43.1335292,1.5252467 42.1275292,1.4982467 L4.41952917,0.502246704 C3.37752917,0.475246704 2.35552917,0.876246704 1.61452917,1.6202467 L1.60952917,1.6212467 Z M4.47752917,4.4782467 L41.9865292,5.4672467 L84.4915292,47.9732467 L47.9685292,84.4962467 L5.46852917,41.9962467 L4.47652917,4.4782467 L4.47752917,4.4782467 Z M16.3615292,16.3662467 C12.8875292,19.8412467 12.8875292,25.5342467 16.3615292,29.0092467 C19.8355292,32.4842467 25.5295292,32.4842467 29.0035292,29.0092467 C32.4785292,25.5342467 32.4775292,19.8412467 29.0035292,16.3662467 C25.5295292,12.8912467 19.8355292,12.8912467 16.3615292,16.3662467 L16.3615292,16.3662467 Z M19.1705292,19.1752467 C21.1265292,17.2192467 24.2375292,17.2192467 26.1905292,19.1752467 C28.1465292,21.1312467 28.1465292,24.2432467 26.1905292,26.1952467 C24.2345292,28.1512467 21.1235292,28.1512467 19.1705292,26.1952467 C17.2145292,24.2392467 17.2145292,21.1282467 19.1705292,19.1752467 L19.1705292,19.1752467 Z" id="Shape" fill="#000000" transform="translate(44.500388, 44.500859) rotate(-270.000000) translate(-44.500388, -44.500859) "></path>
    </g>
</svg>