<?xml version="1.0" encoding="UTF-8" standalone="no"?>
<svg width="2px" height="70px" viewBox="0 0 2 70" version="1.1" xmlns="http://www.w3.org/2000/svg" xmlns:xlink="http://www.w3.org/1999/xlink">
    <!-- Generator: Sketch 3.6.1 (26313) - http://www.bohemiancoding.com/sketch -->
    <title>Fill 1</title>
    <desc>Created with Sketch.</desc>
    <defs></defs>
    <g id="Page-1" stroke="none" stroke-width="1" fill="none" fill-rule="evenodd">
        <g id="Desktop-Landscape-Copy-3" transform="translate(-679.000000, -629.000000)" fill="#221F20">
            <path d="M680.096015,629.062937 C680.096015,629.062937 680.192031,633.430062 680.336054,639.981389 C680.37206,641.619061 680.410946,643.393126 680.452232,645.269725 C680.485358,647.146324 680.520403,649.125457 680.556409,651.172308 C680.6241,655.266967 680.696111,659.634092 680.767643,664.001537 C680.81181,666.1851 680.855977,668.368663 680.899664,670.518367 C680.958713,672.667752 680.974556,674.783278 681,676.830447 C680.99808,678.877617 680.981277,680.856431 680.928469,682.73303 C680.905425,683.67117 680.882861,684.584076 680.860778,685.466956 C680.828613,686.349835 680.797888,687.20269 680.767643,688.021686 C680.709554,689.659358 680.630341,691.160637 680.56121,692.491345 C680.487758,693.822054 680.413826,694.982191 680.337974,695.93726 C680.265002,696.892649 680.218915,697.643288 680.168027,698.15532 C680.120979,698.667033 680.096015,698.939819 680.096015,698.939819 C680.092655,698.975274 680.047048,699.002106 679.993759,698.99987 C679.945271,698.997953 679.906385,698.971761 679.903985,698.939819 C679.903985,698.939819 679.879021,698.667033 679.831493,698.15532 C679.781085,697.643288 679.734998,696.892649 679.662026,695.93726 C679.586174,694.982191 679.511762,693.822054 679.43879,692.491345 C679.369179,691.160637 679.289966,689.659358 679.231877,688.021686 C679.202112,687.20269 679.170907,686.349835 679.139222,685.466956 C679.117139,684.584076 679.094575,683.67117 679.071051,682.73303 C679.018723,680.856431 679.00192,678.877617 679,676.830447 C679.025444,674.783278 679.041287,672.667752 679.100336,670.518367 C679.144023,668.368663 679.18771,666.1851 679.231877,664.001537 C679.303889,659.634092 679.3759,655.266967 679.443591,651.172308 C679.479597,649.125457 679.514642,647.146324 679.547288,645.269725 C679.588574,643.393126 679.62746,641.619061 679.663946,639.981389 C679.807489,633.430062 679.903985,629.062937 679.903985,629.062937 C679.904945,629.0278 679.948152,628.999372 680.00144,629.000011 C680.053289,629.000649 680.095055,629.028758 680.096015,629.062937" id="Fill-1"></path>
        </g>
    </g>
</svg>